<?xml version="1.0" encoding="UTF-8" standalone="no"?>
<svg
   version="1.1"
   id="Wii Shop Channel"
   x="0px"
   y="0px"
   viewBox="0 0 396.8 396.8"
   enable-background="new 0 0 334.5 394.7"
   xml:space="preserve"
   width="128"
   height="128"
   xmlns="http://www.w3.org/2000/svg"
   xmlns:svg="http://www.w3.org/2000/svg"><defs
   id="defs129" />
<g
   id="g124"
   transform="translate(31.142506,1.05)">
	<path
   fill="#ffffff"
   d="m 314.8,87.6 c 0,0 -16,-2.2 -46.1,-6.3 V 58.9 C 268.7,28.3 257.1,6.5 222.6,5.4 201.9,4.8 179.7,21.7 179.7,51.5 v 20.7 c -28.5,-2 -26.3,-2.5 -26.3,-2.5 -4.6,0.1 -8.4,3.5 -8.4,9.9 l 4.1,157.8 c 0,6.3 2.1,10.7 8.4,14.3 l 157.3,35.2 c 6,2 10.8,-2.3 10.8,-9.6 0,0 3.6,-33.2 3.6,-95.9 0,-62.7 -3.6,-78.5 -3.6,-78.5 -1,-7.7 -4.1,-13.4 -10.8,-15.3 M 196.6,53.1 c 0,-18.7 10.3,-30.4 25.9,-29.2 20.5,2 26.9,16.7 26.9,34.2 v 20.7 c -8.7,-1 -18.2,-2.1 -28.6,-3.2 -9,-0.9 -17,-1.7 -24.3,-2.2 V 53.1 Z"
   id="path86" />
	<path
   fill="#ffffff"
   d="m 254.9,85 -6,-0.7 c -8.7,-1.1 -18.1,-2.1 -28.5,-3.2 -8.9,-0.9 -17,-1.6 -24.2,-2.2 l -5,-0.4 V 53.1 c 0,-21.8 12.9,-36 31.8,-34.6 20.6,2 31.9,16 31.9,39.6 z M 202,68.5 c 6,0.5 12.4,1.1 19.5,1.8 8.1,0.8 15.6,1.6 22.7,2.5 V 58.1 c 0,-24 -12.6,-27.9 -22.1,-28.8 -0.5,0 -1.1,-0.1 -1.7,-0.1 -11.3,0 -18.4,9.1 -18.4,23.8 z"
   id="path88" />
	<path
   fill="#ffffff"
   d="m 317.6,292.7 v 0 c -1.5,0 -3,-0.2 -4.5,-0.7 L 154.8,256.4 C 147,252 143.6,246.2 143.6,237.4 L 139.5,79.7 c 0,-8.9 5.6,-15.2 13.7,-15.4 l 0.6,4 1.2,-3.7 c 0.4,0.1 3.3,0.6 19.3,1.8 V 51.5 C 174.3,19.3 198.3,0 221.4,0 h 1.3 c 34.1,1.1 51.4,20.9 51.4,58.9 v 17.7 l 41.4,5.6 c 6.5,1.8 13.7,6.5 15.4,19.8 0.1,0.2 3.6,16.7 3.6,79.2 0,62.3 -3.6,96.1 -3.6,96.5 0,3.6 -1.2,7.3 -3.4,10.1 -2.4,3.2 -6,4.9 -9.9,4.9 m -158.1,-46.2 156.5,35 c 0.9,0.3 1.3,0.3 1.7,0.3 v 0 c 0.6,0 1.1,-0.2 1.5,-0.7 0.7,-0.8 1.1,-2.2 1.1,-3.9 0.1,-0.9 3.6,-34.3 3.6,-95.9 0,-60.7 -3.4,-77.2 -3.4,-77.3 -1.2,-8.5 -4.4,-10.4 -7,-11.2 l -50,-6.7 V 58.9 c 0,-32 -13,-47.2 -40.9,-48.1 h -1 c -17.6,0 -36.3,14.3 -36.3,40.7 V 78 l -5.8,-0.4 c -14.8,-1 -22.5,-1.5 -26.6,-2.4 -2,0.5 -2.4,2.6 -2.4,4.4 l 4.1,157.7 c -0.1,4.6 1.1,6.9 4.9,9.2"
   id="path90" />
	<path
   fill="#0094d2"
   d="m 314.8,87.6 c 0,0 -16,-2.2 -46.1,-6.3 V 58.9 C 268.7,28.3 257.1,6.5 222.6,5.4 201.9,4.8 179.7,21.7 179.7,51.5 v 20.7 c -20.1,-1.5 -26.3,-2.5 -26.3,-2.5 -4.6,0.1 -8.4,3.5 -8.4,9.9 l 4.1,157.8 c 0,6.3 2.1,10.7 8.4,14.3 l 157.3,35.2 c 6,2 9.6,-1.9 10.8,-9.6 0,0 3.6,-33.2 3.6,-95.9 0,-62.7 -3.6,-78.5 -3.6,-78.5 -1,-7.7 -3.1,-13.8 -10.8,-15.3 M 196.6,53.1 c 0,-18.7 10.3,-30.4 25.9,-29.2 20.5,2 26.9,16.7 26.9,34.2 v 20.7 c -8.7,-1 -18.2,-2.1 -28.6,-3.2 -9,-0.9 -17,-1.7 -24.3,-2.2 V 53.1 Z"
   id="path92" />
	<path
   fill="#ffffff"
   d="m 192,84.8 c -42.3,-5.8 -76.4,-7.3 -76.4,-7.3 -4.9,-1.2 -8.9,3.5 -8.9,10.4 l 4.4,173.4 c 0,7 2.2,11.8 8.9,15.9 l 177,46 c 6.1,2.2 11,-2.3 11,-10.1 0,0 3.7,-37 3.7,-105.5 0,-68.5 -3.7,-89 -3.7,-89 -1,-8.1 -4.1,-14.5 -11,-16.8 -0.1,-0.1 -62.7,-11.2 -105,-17"
   id="path94" />
	<path
   fill="#ffffff"
   d="m 299.9,329.8 v 0 c -1.7,0 -3.4,-0.3 -5.1,-0.9 l -178,-46.5 c -8.2,-5 -11.8,-11.5 -11.8,-21 L 100.6,88.2 c 0,-10.6 7.3,-18.2 15.7,-16.6 4.4,0.2 37,1.9 76.4,7.3 42,5.7 104.6,16.9 105.2,17 l 0.9,0.2 c 8.5,2.9 13.5,10.2 15,21.7 0.1,0.6 3.7,21.5 3.7,89.8 0,68 -3.7,105.7 -3.7,106.1 0,3.9 -1.2,7.8 -3.5,10.8 -2.5,3.4 -6.2,5.3 -10.4,5.3 m -177.5,-58.2 176,45.7 c 1.8,0.6 1.7,0.8 2.5,-0.2 0.3,-0.4 1,-1.6 1,-4.1 0.1,-1 3.7,-38.1 3.7,-105.5 0,-66.8 -3.6,-87.8 -3.6,-88 -1.2,-8.7 -4.3,-11.1 -6.7,-12.1 -6,-1.1 -64.4,-11.4 -104.2,-16.8 -41.6,-5.7 -75.5,-7.2 -75.8,-7.2 l -1.2,-0.2 c -0.4,0.2 -1.5,1.6 -1.5,4.6 L 117,261 c 0,5.4 1.3,8 5.4,10.6"
   id="path96" />
	<path
   fill="#009eda"
   d="m 192,84.8 c -42.3,-5.8 -76.4,-7.3 -76.4,-7.3 -4.9,-1.2 -8.9,3.5 -8.9,10.4 l 4.4,173.4 c 0,7 2.2,11.8 8.9,15.9 l 177,46 c 6.1,2.2 9.7,-1.9 11,-10.1 0,0 3.7,-37 3.7,-105.5 0,-68.5 -3.7,-89 -3.7,-89 -1.5,-8.8 -4.1,-14.5 -11,-16.8 -0.1,-0.1 -62.7,-11.2 -105,-17"
   id="path98" />
	<path
   fill="#ffffff"
   d="M 161.7,96.3 C 101.2,84.3 73,81.6 73,81.6 67.7,80 63.4,84.6 63.4,92 l 4.7,183.1 c 0,7.3 2.4,12.5 9.6,17.2 l 188.6,61.9 c 6.5,2.7 11.8,-1.6 11.8,-9.9 0,0 3.4,-36.3 3.4,-108.8 0,-72.6 -3.4,-97.1 -3.4,-97.1 -1,-8.3 -4,-15.7 -11.8,-18.4 -44.2,-11.7 -44.2,-11.7 -104.6,-23.7"
   id="path100" />
	<path
   fill="#ffffff"
   d="m 269.9,361.7 v 0 c -2.1,0 -4.2,-0.4 -6.3,-1.3 L 74,297.9 C 65.3,292.2 61.4,285.1 61.4,275.1 L 56.7,92.2 c 0,-11.6 8.1,-19.4 17.5,-17.1 4.4,0.5 32.6,3.6 88.8,14.7 60.6,12 60.6,12 104.9,23.8 9.6,3.2 15.1,11.2 16.7,24 0.1,0.9 3.4,25.8 3.4,98 0,72 -3.3,109.1 -3.4,109.4 0,4.1 -1.2,8.2 -3.6,11.3 -2.7,3.5 -6.6,5.4 -11.1,5.4 M 80.6,286.3 268.3,347.9 c 2.3,0.9 1.7,0.7 2.1,0.2 0.2,-0.3 0.9,-1.3 0.9,-3.7 0.1,-1 3.4,-37.5 3.4,-108.8 0,-71 -3.2,-96 -3.3,-96.3 -1.2,-9.8 -4.7,-12.1 -7.3,-12.9 C 220.6,114.9 220.6,114.9 160.4,102.9 101.1,91.1 72.7,88.3 72.4,88.3 L 71.1,88 c 0,0 -0.9,1.3 -0.9,4 l 4.6,182.9 c 0,4.8 0.9,7.9 5.8,11.4"
   id="path102" />
	<path
   fill="#05a9e1"
   d="M 161.7,96.3 C 101.2,84.4 73,81.6 73,81.6 67.7,80 63.4,84.6 63.4,92 l 4.7,183.1 c 0,7.3 2.4,12.5 9.6,17.2 l 188.6,61.9 c 6.5,2.7 10.7,-1.6 11.8,-9.9 0,0 3.4,-36.3 3.4,-108.8 0,-72.6 -3.4,-97.1 -3.4,-97.1 -0.8,-8.8 -3.2,-15.7 -11.8,-18.4 -38,-10.3 -46.1,-12.1 -104.6,-23.7"
   id="path104" />
	<path
   fill="#ffffff"
   d="m 233.7,158.7 c 0,-0.3 -0.1,-0.6 -0.2,-1 -0.6,-7.8 -4.8,-15.1 -12.3,-18.2 0,0 -19.1,-6.4 -52.8,-16.4 V 94.2 C 168.4,57.7 155,29.4 114.8,21 90.5,15.9 64.4,31.7 64.4,67.5 v 27 C 31.4,86.3 18.1,83.8 18.1,83.8 11.8,82.5 8.1,86.4 8.1,94.1 h 0.1 c -0.3,4.9 -1.5,31.2 0.1,97.6 1.7,74.5 4.9,95.1 4.9,95.1 0,7.7 2.5,13.2 10,18.7 0,0 18.8,10.6 88.8,39.3 70,28.7 109.4,41.8 109.4,41.8 7.7,2.5 12.4,-0.9 12.4,-9.6 0,0 2.5,-28.4 2.5,-112.8 -0.1,-84.3 -2.6,-105.5 -2.6,-105.5 M 84.3,72.9 c 0,-22.5 12.1,-34.4 30.5,-29.7 23.9,6.5 31.4,25.5 31.4,46.3 v 27.1 c -10.5,-3 -22,-6.2 -34.4,-9.6 -10,-2.7 -19.1,-5.2 -27.4,-7.3 z"
   id="path106" />
	<path
   fill="#ffffff"
   d="m 153.5,126.3 -9.3,-2.7 c -10.5,-3 -22,-6.2 -34.4,-9.6 -10,-2.7 -19.1,-5.2 -27.4,-7.3 l -5.5,-1.4 V 72.9 c 0,-23.1 11.9,-38 30.2,-38 3,0 6.1,0.4 9.3,1.2 24.2,6.6 36.9,25.1 36.9,53.4 v 36.8 z M 91.6,94 c 6.8,1.8 14.1,3.8 22,5.9 8.9,2.4 17.3,4.8 25.2,7 V 89.5 c 0,-21.6 -8.5,-34.5 -26,-39.3 -1.9,-0.5 -3.8,-0.7 -5.6,-0.7 -14.1,0 -15.6,16.4 -15.6,23.4 z"
   id="path108" />
	<path
   fill="#ffffff"
   d="m 225.8,394.7 v 0 c -2.1,0 -4.4,-0.4 -6.7,-1.1 -0.5,-0.2 -40.6,-13.5 -110,-42 C 39.5,323 20.3,312.4 19.5,312 9.9,305.2 5.9,297.7 5.7,287.4 5.2,283.6 2.4,260.4 0.8,191.9 -0.6,131.8 0.2,104.5 0.7,95.5 V 94.1 C 0.7,81 8.8,76.3 15.8,76.3 c 1.2,0 2.4,0.1 3.7,0.4 0.4,0.1 11.3,2.1 37.6,8.5 V 67.5 c 0,-37.6 25.2,-54.8 48.7,-54.8 3.5,0 7,0.4 10.4,1.1 39.5,8.2 59.5,35.3 59.5,80.4 v 23.4 c 30.2,9 47.6,14.9 47.8,14.9 9.6,3.9 16,12.8 17.2,23.5 0.2,0.7 0.3,1.4 0.3,2 0.3,3 2.5,26.7 2.5,106.2 0,83.7 -2.4,112.2 -2.5,113.4 0,4.4 -1.2,8.5 -3.6,11.6 -2.7,3.6 -6.8,5.5 -11.6,5.5 M 27.4,299.6 c 0.1,0 20,10.8 87.3,38.4 68.9,28.3 108.6,41.5 109,41.6 1.3,0.4 2.2,0.4 2.5,0.4 -0.1,-0.1 0.3,-1 0.3,-3 0.1,-0.9 2.5,-29.9 2.5,-112.8 0,-75.4 -2.1,-100.3 -2.4,-104.2 l -0.2,-0.5 -0.1,-1.3 c -0.5,-5.7 -3.4,-10.2 -7.8,-12 0,0 -19.2,-6.4 -52.1,-16.1 l -5.2,-1.6 V 94.2 C 161.2,55.9 146,35 113.4,28.1 94,24.1 71.8,35.7 71.8,67.5 v 36.4 l -9.1,-2.3 C 30.3,93.5 16.9,91.1 16.8,91 l -1,-0.1 c 0,0.1 -0.2,0.4 -0.3,0.9 l -0.1,2.8 c -0.3,4.6 -1.5,31 0.1,97 1.7,72.7 4.8,94 4.8,94.2 l 0.1,1.1 c 0,5 1.1,8.5 7,12.7"
   id="path110" />
	<path
   fill="#11b5e9"
   d="m 233.7,158.7 c 0,-0.3 -0.1,-0.6 -0.2,-1 -0.6,-7.8 -4.4,-15.5 -12.3,-18.2 0,0 -19.1,-6.4 -52.8,-16.4 V 94.2 C 168.4,57.7 155.6,28.4 114.8,21 90.4,16.6 64.4,31.7 64.4,67.5 v 27 C 31.4,86.3 18.1,83.8 18.1,83.8 11.8,82.5 8.8,86.1 8.1,94.1 h 0.1 c -0.3,4.9 -1.5,31.2 0.1,97.6 1.7,74.5 4.9,95.1 4.9,95.1 0.8,7.4 2.5,13.2 10,18.7 0,0 18.8,10.6 88.8,39.3 70,28.7 109.4,41.8 109.4,41.8 7.7,2.5 11.4,-0.2 12.4,-9.6 0,0 2.5,-28.4 2.5,-112.8 -0.1,-84.3 -2.6,-105.5 -2.6,-105.5 M 84.3,72.9 c 0,-22.5 12.1,-34.4 30.5,-29.7 23.9,6.5 31.4,25.5 31.4,46.3 v 27.1 c -10.5,-3 -22,-6.2 -34.4,-9.6 -10,-2.7 -19.1,-5.2 -27.4,-7.3 z"
   id="path112" />
	<path
   fill="#ffffff"
   d="m 129,205.8 c 0,4 2.8,8.2 6.1,9.3 3.6,1.2 6.4,-1.2 6.4,-5.4 0,-4.2 -2.8,-8.3 -6.4,-9.4 -3.4,-1 -6.1,1.4 -6.1,5.5"
   id="path114" />
	<polygon
   fill="#ffffff"
   points="140.6,266.9 140.6,224.3 130,220.8 130,263 "
   id="polygon116" />
	<path
   fill="#ffffff"
   d="m 150.7,212.6 c 0,4.1 2.9,8.4 6.4,9.6 3.7,1.2 6.6,-1.2 6.6,-5.5 0,-4.3 -2.9,-8.5 -6.6,-9.7 -3.6,-1 -6.4,1.4 -6.4,5.6"
   id="path118" />
	<polygon
   fill="#ffffff"
   points="162.8,275.3 162.8,231.7 151.7,228 151.7,271.1 "
   id="polygon120" />
	<path
   fill="#ffffff"
   d="m 113.6,197.2 -8.8,40.9 c 0,0 -6.6,-34.9 -7.6,-39.8 -1.1,-5 -3.3,-7.7 -6.3,-8.6 -3.1,-1 -5.2,0.4 -6.2,4.6 -1,4.2 -7.3,34 -7.3,34 l -8.1,-44.9 -9.6,-3 c 0,0 9.2,47.6 10.5,53.3 1,4.4 3.4,8.6 6.9,9.9 4,1.5 5.9,-1.7 6.8,-4.9 0.9,-3.2 7.2,-31.2 7.2,-31.2 0,0 6.3,32.6 7.3,36.5 0.9,4 2.9,8.7 7.1,10.3 3.8,1.4 6.3,-1.1 7.4,-4.9 1.4,-5 11.8,-48.7 11.8,-48.7 l -11.1,-3.5"
   id="path122" />
</g>
</svg>
